<svg xmlns="http://www.w3.org/2000/svg" style="display:none">
  <symbol id="icon-add" viewBox="0 0 20 20">
    <path d="M19 2.5A1.5 1.5 0 0 0 17.5 1h-15A1.5 1.5 0 0 0 1 2.5v15A1.5 1.5 0 0 0 2.5 19H10v-2H3.497c-.41 0-.64-.46-.4-.79l3.553-4.051c.19-.21.52-.21.72-.01L9 14l3.06-4.781a.5.5 0 0 1 .84.02l.72 1.251A6 6 0 0 1 16 10h3zm-11.5 2c1.1 0 2 .9 2 2s-.9 2-2 2-2-.9-2-2 .9-2 2-2m12.207 10.793A1 1 0 0 0 19 15h-2v-2a1 1 0 0 0-2 0v2h-2a1 1 0 0 0 0 2h2v2a1 1 0 1 0 2 0v-2h2a1 1 0 0 0 .707-1.707" fill="currentColor"/>
  </symbol>

  <symbol id="icon-move" viewBox="0 0 24 24">
    <g transform="matrix(-1 0 0 1 24 0)">
      <path d="M21.4 2.6a2 2 0 0 0-2.27-.42L3.2 9.4A2 2 0 0 0 2 11.52a2.26 2.26 0 0 0 1.8 2l5.58 1.13 1.13 5.58a2.26 2.26 0 0 0 2 1.8h.25a2 2 0 0 0 1.87-1.2l7.19-15.96a2 2 0 0 0-.42-2.27" fill="currentColor"/>
    </g>
  </symbol>

  <symbol id="icon-crop" viewBox="0 0 24 24">
    <path d="M6.5 1a1 1 0 0 1 1 1v14.5H22a1 1 0 0 1 1 1v1a1 1 0 0 1-1 1h-2.5V22a1 1 0 0 1-1 1h-1a1 1 0 0 1-1-1v-2.5H7A2.5 2.5 0 0 1 4.5 17V7.5H2a1 1 0 0 1-1-1v-1a1 1 0 0 1 1-1h2.5V2a1 1 0 0 1 1-1z" fill="currentColor"/>
    <path d="M16.5 15V7.5H9v-3h8A2.5 2.5 0 0 1 19.5 7v8z" fill="currentColor"/>
  </symbol>

  <symbol id="icon-rotate" viewBox="0 0 15 15">
    <path fill-rule="evenodd" clip-rule="evenodd" d="M7.597 2.936A.25.25 0 0 0 8 2.74V2c1.981 0 3.185.364 3.91 1.09C12.637 3.814 13 5.018 13 7a.5.5 0 0 0 1 0c0-2.056-.367-3.603-1.382-4.618C11.603 1.368 10.056 1 8 1V.261a.25.25 0 0 0-.403-.197L6.004 1.303a.25.25 0 0 0 0 .394zM9.5 5h-7a.5.5 0 0 0-.5.5v7a.5.5 0 0 0 .5.5h7a.5.5 0 0 0 .5-.5v-7a.5.5 0 0 0-.5-.5m-7-1A1.5 1.5 0 0 0 1 5.5v7A1.5 1.5 0 0 0 2.5 14h7a1.5 1.5 0 0 0 1.5-1.5v-7A1.5 1.5 0 0 0 9.5 4z" fill="currentColor"/>
  </symbol>

  <symbol id="icon-filter" viewBox="0 0 24 24">
    <path d="M12 20.472a6 6 0 1 0 5.58-10.262m-11.16 0a6 6 0 1 0 7.16 3.58M18 8A6 6 0 1 1 6 8a6 6 0 0 1 12 0" stroke="currentColor" stroke-width="2" stroke-linecap="round" stroke-linejoin="round" fill="none"/>
  </symbol>

  <symbol id="icon-shadow" viewBox="0 0 512 512">
    <path d="M250.322 18.494c-25.06 3.26-47.158 32.267-47.158 69.346 0 20.453 7.06 38.57 17.502 51.166l10.123 12.213-15.59 2.932c-13.676 2.574-23.794 9.896-32.272 21.547-8.48 11.65-14.86 27.7-19.326 46.095-8.23 33.9-9.916 75.216-10.143 111.275h44.007l11.883 159.512h96.37l10.514-159.512h41.88c-.013-36.448-.353-78.316-7.81-112.48-4.042-18.524-10.176-34.575-18.777-46.12-8.6-11.543-19.21-18.81-34.482-21.18l-15.912-2.468 10.037-12.59c9.99-12.533 16.7-30.436 16.7-50.392 0-39.537-24.776-69.268-52.352-69.268-2.915 0-4.754-.135-5.196-.078zm178.608 1.078c-31.872-.534-61.166 26.473-71.084 63.49-4.575 17.073-4.83 35.29-.817 51.108-10.96 1.307-20.99 5.173-29.772 10.996 5.563 3.58 10.537 7.906 14.906 12.814 7.998-4.296 16.716-6.28 27.084-5.492l15.816 1.2-6.615-14.415c-5.86-12.764-7.33-33.55-2.554-51.377 8.122-30.308 31.484-49.75 52.75-49.61q2.126.011 4.22.29l.01.002c.263.037 1.817.567 4.44 1.27 23.73 6.36 38.404 37.853 29.168 72.324-4.66 17.392-15.965 34.567-27.02 42.73l-12.954 9.565 14.73 6.502c13.063 5.765 20.835 13.86 25.885 24.348s7.12 23.674 6.846 38.674c-.5 27.368-8.862 60.148-17.2 91.362l-36.864-9.88-51.232 153.712-42.69.11-1.23 18.69 57.402-.146 49.914-149.758 37.946 10.166 2.42-9.025c9.022-33.677 19.603-71.135 20.22-104.89.31-16.876-1.89-32.994-8.693-47.124-5.016-10.417-12.696-19.57-23.065-26.622 10.814-11.607 19.228-27.125 23.637-43.58 11.288-42.13-6.228-85.52-42.38-95.21l-.003-.003c-1.106-.296-3.297-1.274-6.81-1.744h-.008l-2.838-.38-.295.146c-1.09-.082-2.185-.226-3.27-.244zm-349.32.46c-4.49.056-9.02.665-13.538 1.876-.095.026-.327.068-.44.094l-.575-.574-5.76 2.377h-.002C27.32 36.99 13.11 77.635 23.69 117.12c4.574 17.073 13.46 32.977 24.845 44.67-9.328 6.978-16.34 15.908-21.053 25.99-6.507 13.924-8.973 29.83-9.11 46.6-.27 33.543 8.753 71.01 17.82 104.845l2.42 9.027 40.02-10.727 51.11 149.454 60.46.153-1.39-18.694-45.7-.116-52.446-153.37-38.73 10.378c-8.028-30.892-15.098-63.467-14.875-90.8.122-14.997 2.417-28.276 7.354-38.84 4.937-10.56 12.24-18.566 23.865-24.15l14.298-6.87-12.94-9.176c-11.456-8.122-23.12-25.39-27.896-43.215-8.66-32.315 3.867-62.596 24.653-71.188l.025-.01c.244-.1 1.86-.42 4.486-1.12h.002l.002-.003a34.7 34.7 0 0 1 9.072-1.175c21.47.027 44.263 19.06 52.344 49.223 4.66 17.392 3.46 37.92-2.035 50.517l-6.436 14.76 16.01-1.734c13.355-1.447 23.684 1.234 32.868 7.016 4.285-4.866 9.108-9.17 14.46-12.742a78 78 0 0 0-2.212-1.572c-9.55-6.512-20.777-10.598-33.283-11.522 3.562-15.46 3.09-33.105-1.318-49.56-9.878-36.864-39.338-63.538-70.77-63.14z" fill="currentColor"/>
  </symbol>

  <symbol id="icon-redo" viewBox="-2 0 24 24">
    <path fill="currentColor" fill-rule="evenodd" clip-rule="evenodd" d="m14.379 7-1.44 1.44a1.5 1.5 0 0 0 2.122 2.12l4-4a1.5 1.5 0 0 0 0-2.12l-4-4a1.5 1.5 0 0 0-2.122 2.12L14.38 4H10C4.477 4 0 8.477 0 14s4.477 10 10 10 10-4.477 10-10a1.5 1.5 0 0 0-3 0 7 7 0 1 1-7-7z"/>
  </symbol>

  <symbol id="icon-undo" viewBox="-2 0 24 24">
    <g transform="translate(20 0) scale(-1 1)">
      <path fill="currentColor" fill-rule="evenodd" clip-rule="evenodd" d="m14.379 7-1.44 1.44a1.5 1.5 0 0 0 2.122 2.12l4-4a1.5 1.5 0 0 0 0-2.12l-4-4a1.5 1.5 0 0 0-2.122 2.12L14.38 4H10C4.477 4 0 8.477 0 14s4.477 10 10 10 10-4.477 10-10a1.5 1.5 0 0 0-3 0 7 7 0 1 1-7-7z"/>
    </g>
  </symbol>

  <symbol id="icon-duplicate" viewBox="0 0 15 15">
    <path fill-rule="evenodd" clip-rule="evenodd" d="M1 9.5A1.5 1.5 0 0 0 2.5 11H4v-1H2.5a.5.5 0 0 1-.5-.5v-7a.5.5 0 0 1 .5-.5h7a.5.5 0 0 1 .5.5V4H5.5A1.5 1.5 0 0 0 4 5.5v7A1.5 1.5 0 0 0 5.5 14h7a1.5 1.5 0 0 0 1.5-1.5v-7A1.5 1.5 0 0 0 12.5 4H11V2.5A1.5 1.5 0 0 0 9.5 1h-7A1.5 1.5 0 0 0 1 2.5zm4-4a.5.5 0 0 1 .5-.5h7a.5.5 0 0 1 .5.5v7a.5.5 0 0 1-.5.5h-7a.5.5 0 0 1-.5-.5z" fill="currentColor"/>
  </symbol>

  <symbol id="icon-text" viewBox="0 0 12 12">
    <path d="M12 1v2a1 1 0 0 1-2 0V2H7v8h1a1 1 0 0 1 0 2H4a1 1 0 0 1 0-2h1V2H2v1a1 1 0 1 1-2 0V1a1 1 0 0 1 1-1h10a1 1 0 0 1 1 1" fill="currentColor"/>
  </symbol>

  <symbol id="icon-remove-bg" viewBox="0 0 300 300">
    <g fill="#ffffff">
      <path d="M272.9 37c-2.7-5.1-7.1-9.4-12.1-11.9-4.3-2-5.5-2.1-49.1-2.1H167v12h88.7l3.6 3.7 3.7 3.6v213.4l-3.7 3.6-3.6 3.7H167v12h44.4c42.3 0 44.6-.1 48.9-2 5.7-2.5 9.8-6.6 12.6-12.3 2.1-4.3 2.1-4.5 2-112.3-.1-102.9-.2-108.1-2-111.4m-124-37h-6l.2 11c.1 6.1-.1 11.3-.3 11.6-.3.3-23.2.4-50.8.4-49.2 0-50.4 0-54.7 2.1-5.5 2.7-9.5 6.7-12.2 12.2C23 41.6 23 42 23 149s0 107.4 2.1 111.7c2.8 5.7 6.9 9.8 12.6 12.3 4.5 2 6.4 2 54.7 2l50.1-.1.3 12.6.3 12.5H155V0zm-6.2 46.6c-.3.6-2.9.9-6.2.6l-5.5-.4v12.4l5.3-.3c2.8-.2 5.7-.1 6.2.3 1.1.7 1.3 9.7.2 11.4-.4.6-2.9.9-6.2.6l-5.5-.4v12.4l5.5-.4c3.3-.3 5.8 0 6.2.6 1.1 1.7.9 10.7-.2 11.4-.5.4-3.4.5-6.2.3l-5.3-.3v12.4l5.5-.4c3.3-.3 5.8 0 6.2.6 1.1 1.7.9 10.7-.2 11.4-.5.4-3.4.5-6.2.3l-5.3-.3v12.4l5.5-.4c3.3-.3 5.8 0 6.2.6 1.1 1.7.9 10.7-.2 11.4-.5.4-3.4.5-6.2.3l-5.3-.3v12.4l5.5-.4c3.3-.3 5.8 0 6.2.6 1.1 1.7.9 10.7-.2 11.4-.5.4-3.4.5-6.2.3l-5.3-.3v12.4l5.5-.4c3.3-.3 5.8 0 6.2.6 1.1 1.7.9 10.7-.2 11.4-.5.4-3.4.5-6.2.3l-5.3-.3v12.4l5.5-.4c3.3-.3 5.8 0 6.2.6 1.1 1.7.9 10.7-.2 11.4-.5.4-3.4.5-6.2.3l-5.3-.3v12.4l5.5-.4c3.3-.3 5.9 0 6.2.6 1.1 1.8 1 10.6-.1 11.4-1.3 1-9.6.9-11.2-.1-.6-.4-.9-2.8-.6-6.2l.4-5.5h-12.4l.3 5.3c.2 2.8.1 5.7-.3 6.2-.7 1.1-9.7 1.3-11.4.2-.6-.4-.9-2.9-.6-6.2l.4-5.5H94.8l.4 5.5c.3 3.3 0 5.8-.6 6.2-1.7 1.1-10.7.9-11.4-.2-.4-.5-.5-3.4-.3-6.2l.3-5.3H70.8l.3 5.3c.2 2.8.1 5.7-.3 6.2-.7 1.1-9.7 1.3-11.4.2-.6-.4-.9-2.9-.6-6.2l.4-5.5H46.7l.6 5.4c.9 8.5-2.4 9.6-8.9 3.2-6.4-6.5-5.3-9.8 3.2-8.9l5.4.6v-12.5l-5.5.4c-3.3.3-5.8 0-6.2-.6-1.1-1.7-.9-10.7.2-11.4.5-.4 3.4-.5 6.3-.3l5.2.3v-12.4l-5.5.4c-3.3.3-5.8 0-6.2-.6-1.1-1.7-.9-10.7.2-11.4.5-.4 3.4-.5 6.3-.3l5.2.3v-12.4l-5.5.4c-3.3.3-5.8 0-6.2-.6-1.1-1.7-.9-10.7.2-11.4.5-.4 3.4-.5 6.2-.3l5.3.3v-12.4l-5.5.4c-3.3.3-5.8 0-6.2-.6-1.1-1.7-.9-10.7.2-11.4.5-.4 3.4-.5 6.2-.3l5.3.3v-12.4l-5.5.4c-3.3.3-5.8 0-6.2-.6-1.1-1.7-.9-10.7.2-11.4.5-.4 3.4-.5 6.3-.3l5.2.3v-12.4l-5.5.4c-3.3.3-5.8 0-6.2-.6-1.1-1.7-.9-10.7.2-11.4.5-.4 3.4-.5 6.3-.3l5.2.3V94.8l-5.5.4c-3.3.3-5.8 0-6.2-.6-1.1-1.7-.9-10.7.2-11.4.5-.4 3.4-.5 6.2-.3l5.3.3V70.8l-5.5.4c-3.3.3-5.8 0-6.2-.6-1.1-1.7-.9-10.7.2-11.4.5-.4 3.4-.5 6.3-.3l5.2.3V46.7l-5.4.6c-8.5.9-9.6-2.4-3.2-8.9 6.5-6.4 9.8-5.3 8.9 3.2l-.6 5.4h12.5l-.4-5.5c-.3-3.3 0-5.8.6-6.2 1.7-1.1 10.7-.9 11.4.2.4.5.5 3.4.3 6.3l-.3 5.2h12.4l-.4-5.5c-.3-3.3 0-5.8.6-6.2 1.7-1.1 10.7-.9 11.4.2.4.5.5 3.4.3 6.3l-.3 5.2h12.4l-.4-5.5c-.3-3.3 0-5.8.6-6.2 1.7-1.1 10.7-.9 11.4.2.4.5.5 3.4.3 6.3l-.3 5.2h12.4l-.4-5.5c-.3-3.4 0-5.8.6-6.2 1.6-1 9.9-1.1 11.2-.1 1.1.8 1.2 9.6.1 11.4"/>
      <path d="M125 59h-6V47h-12v12H95V47H83v12H71V47H59v12H47v12h12v12H47v12h12v12H47v12h12v12H47v12h12v12H47v12h12v12H47v12h12v12H47v12h12v12H47v12h12v12h12v-12h12v12h12v-12h12v12h12v-12h12v-12h-12v-12h12v-12h-12v-12h12v-12h-12v-12h12v-12h-12v-12h12v-12h-12v-12h12v-12h-12V95h12V83h-12V71h12V59zm-12 12h-6v12h12v12h-12v12h12v12h-12v12h12v12h-12v12h12v12h-12v12h12v12h-12v12h12v12h-12v12h12v12h-12v-12H95v12H83v-12H71v12H59v-12h12v-12H59v-12h12v-12H59v-12h12v-12H59v-12h12v-12H59v-12h12v-12H59v-12h12V95H59V83h12V71H59V59h12v12h12V59h12v12h12V59h12v12z"/>
      <path d="M101 83h-6V71H83v12H71v12h12v12H71v12h12v12H71v12h12v12H71v12h12v12H71v12h12v12H71v12h12v12h12v-12h12v-12H95v-12h12v-12H95v-12h12v-12H95v-12h12v-12H95V95h12V83zM89 95h-6V83h12v12zm0 24h-6v-12h12v12zm0 24h-6v-12h12v12zm0 24h-6v-12h12v12zm0 24h-6v-12h12v12zm0 24h-6v-12h12v12z"/>
    </g>
  </symbol>

  <symbol id="icon-upscale" viewBox="0 0 750 750">
    <path d="m211.631 0-37 174.186L.824 215.611l174.868 36.841 41.589 173.175 36.956-174.23 173.839-41.367-174.854-36.856zM670.5 7.919 533.911 143.968l74.5 74.209L744.985 82.122zM484.235 193.444 0 675.791 74.494 750l484.235-482.347-74.5-74.209zm150.147 86.382-19.764 93.061-92.881 22.164 93.426 19.674 22.206 92.52 19.751-93.061L750 392.019l-93.426-19.674zM482.029 448.929 460.25 551.556l-102.398 24.361 103 21.694 24.486 102.028 21.78-102.629 102.396-24.389-102.985-21.709z" fill="currentColor"/>
  </symbol>

  <symbol id="icon-delete" viewBox="0 0 24 24">
    <path fill="currentColor" d="M20 2h-4v-.85C16 .52 15.48 0 14.85 0h-5.7C8.52 0 8 .52 8 1.15V2H4c-1.1 0-2 .9-2 2 0 .74.4 1.38 1 1.73v14.02A4.26 4.26 0 0 0 7.25 24h9.5A4.26 4.26 0 0 0 21 19.75V5.73c.6-.35 1-.99 1-1.73 0-1.1-.9-2-2-2m-1 17.75c0 1.24-1.01 2.25-2.25 2.25h-9.5C6.01 22 5 20.99 5 19.75V6h14z"/>
    <path fill="currentColor" d="M8 20.022a1 1 0 0 1-1-1v-10a1 1 0 1 1 2 0v10a1 1 0 0 1-1 1m8 0a1 1 0 0 1-1-1v-10a1 1 0 1 1 2 0v10a1 1 0 0 1-1 1m-4 0a1 1 0 0 1-1-1v-10a1 1 0 1 1 2 0v10a1 1 0 0 1-1 1"/>
  </symbol>

  <symbol id="icon-export" viewBox="0 0 490.009 490.009">
    <path fill="currentColor" d="M253.354 342.609c4.3 2 9.4 1.4 13-1.6l193.2-160c2.8-2.3 4.4-5.8 4.4-9.4 0-3.7-1.6-7.1-4.5-9.4l-193.1-159.4c-3.7-3-8.7-3.7-13-1.6-4.3 2-7 6.3-7 11.1v83.7c-221.5 8-220.6 176-220.2 257.4v9.7c0 5.6 3.7 10.4 9.1 11.8 1 .3 2.1.4 3.1.4 4.3 0 8.4-2.3 10.7-6.2 65.4-115.2 119.2-120.8 197.3-121.1v83.5c0 4.7 2.701 9 7 11.1m-202.499-22.7c1.1-35.5 5.8-77.8 25.2-113.6 30.8-57 90.5-85.2 182.6-86.1 6.7-.1 12.1-5.5 12.1-12.2v-69.8l161.7 133.4-161.6 133.8v-69.7c0-3.2-1.3-6.4-3.6-8.7s-5.4-3.6-8.7-3.6c-85.7.1-144.8 5.2-207.7 96.5"/>
    <path fill="currentColor" d="M461.555 477.809v-226c0-6.8-5.5-12.3-12.3-12.3s-12.3 5.5-12.3 12.3v213.7h-386.3v-41.6c0-6.8-5.5-12.3-12.3-12.3s-12.3 5.5-12.3 12.3v53.8c0 6.8 5.5 12.3 12.3 12.3h410.9c6.8 0 12.3-5.5 12.3-12.2"/>
  </symbol>

  <symbol id="icon-zoom-out" viewBox="0 0 24 24">
    <path fill="currentColor" d="M5 11h14v2H5z"/>
  </symbol>

  <symbol id="icon-zoom-reset" viewBox="0 0 24 24">
    <path fill="currentColor" d="M12 4a8 8 0 1 1-7.5 10h2.1A6 6 0 1 0 12 6H9.5L12 3l2.5 3z"/>
  </symbol>

  <symbol id="icon-zoom-in" viewBox="0 0 24 24">
    <path fill="currentColor" d="M11 5h2v6h6v2h-6v6h-2v-6H5v-2h6z"/>
  </symbol>
</svg>